<svg width="23" height="24" viewBox="0 0 23 24" fill="none" xmlns="http://www.w3.org/2000/svg">
<path id="Vector" d="M22.179 0.696838V23.1301H15.4494V21.0175C14.672 21.9482 13.6852 22.6814 12.5698 23.1573C11.4544 23.6331 10.2422 23.838 9.0324 23.7551C4.50128 23.7551 0.643555 20.5246 0.643555 14.4662V0.696838H7.37311V13.4847C7.31645 14.0194 7.37704 14.56 7.55064 15.0689C7.72424 15.5778 8.00668 16.0427 8.3783 16.4313C8.74991 16.8199 9.20176 17.1228 9.70239 17.3189C10.203 17.515 10.7404 17.5997 11.277 17.5669C13.744 17.5669 15.4582 16.1321 15.4582 12.9456V0.696838H22.179Z" fill="white"/>
</svg>
