<svg width="57" height="59" viewBox="0 0 57 59" fill="none" xmlns="http://www.w3.org/2000/svg">
<path id="Vector" d="M24.2964 55.5532L1.03784 10.0681C0.50618 9.02758 0.272221 7.8604 0.361768 6.69531C0.451316 5.53023 0.86089 4.41251 1.54532 3.46541C2.22975 2.51831 3.16245 1.77863 4.24056 1.32795C5.31867 0.877261 6.50031 0.733076 7.65516 0.91129L50.7591 7.56382C51.7515 7.717 52.6933 8.10354 53.5072 8.69167C54.3211 9.27979 54.9838 10.0527 55.4407 10.9468C55.8977 11.841 56.1359 12.8308 56.1357 13.835C56.1356 14.8391 55.8971 15.8289 55.4398 16.7229L35.5835 55.5554C35.0503 56.5929 34.2414 57.4634 33.2456 58.0711C32.2498 58.6788 31.1058 59.0002 29.9393 59C28.7727 58.9998 27.6288 58.6779 26.6333 58.0698C25.6378 57.4617 24.8292 56.5909 24.2964 55.5532Z" fill="#1DACE3"/>
</svg>
