<svg width="9" height="34" viewBox="0 0 9 34" fill="none" xmlns="http://www.w3.org/2000/svg">
<path id="Vector" d="M0.334961 4.6849C0.334961 3.88623 0.571788 3.10549 1.01551 2.44142C1.45923 1.77734 2.08991 1.25975 2.82779 0.954114C3.56567 0.648474 4.37762 0.56851 5.16095 0.724324C5.94428 0.880138 6.6638 1.26474 7.22855 1.82949C7.7933 2.39424 8.1779 3.11377 8.33372 3.89709C8.48953 4.68042 8.40956 5.49237 8.10392 6.23024C7.79828 6.96812 7.28069 7.5988 6.61662 8.04252C5.95254 8.48624 5.17181 8.72307 4.37313 8.72307C3.30552 8.71219 2.28471 8.28324 1.52976 7.52829C0.774798 6.77333 0.345847 5.75252 0.334961 4.6849ZM1.00836 10.6971H7.74011V33.1304H1.00836V10.6971Z" fill="white"/>
</svg>
