<svg width="20" height="24" viewBox="0 0 20 24" fill="none" xmlns="http://www.w3.org/2000/svg">
<path id="Vector" d="M19.5829 16.3966C19.5829 21.5571 15.0958 23.7556 10.25 23.7556C8.29238 23.9327 6.32667 23.5184 4.60711 22.5662C2.88755 21.6141 1.49325 20.1678 0.604553 18.4146L6.43625 15.0961C6.67333 15.9065 7.18144 16.6109 7.87562 17.0916C8.5698 17.5722 9.40797 17.8 10.25 17.7368C11.8652 17.7368 12.6707 17.2417 12.6707 16.346C12.6707 13.8769 1.63446 15.1797 1.63446 7.41583C1.63446 2.52601 5.76066 0.0590931 10.437 0.0590931C12.191 0.0040354 13.9277 0.42025 15.4662 1.26439C17.0047 2.10853 18.2887 3.34972 19.1846 4.85869L13.4431 7.95498C13.1919 7.3661 12.7729 6.86423 12.2383 6.512C11.7037 6.15978 11.0772 5.9728 10.437 5.97441C9.27068 5.97441 8.55326 6.41454 8.55326 7.23097C8.54666 9.80572 19.5829 8.10023 19.5829 16.3966Z" fill="white"/>
</svg>
