<svg width="25" height="33" viewBox="0 0 25 33" fill="none" xmlns="http://www.w3.org/2000/svg">
<path id="Vector" d="M24.8104 11.9139C24.8886 13.3967 24.6729 14.8803 24.1757 16.2795C23.6785 17.6786 22.9096 18.9656 21.9132 20.0666C20.9168 21.1675 19.7126 22.0605 18.3698 22.6944C17.027 23.3282 15.5722 23.6904 14.0889 23.7599C12.8413 23.8279 11.5942 23.6174 10.4379 23.144C9.2816 22.6705 8.24507 21.9458 7.40338 21.0223V32.1048H0.673828V0.697246H7.40338V2.80545C8.24527 1.8824 9.28189 1.15812 10.4382 0.685023C11.5945 0.21193 12.8415 0.00186854 14.0889 0.0700556C15.5721 0.13936 17.0268 0.501234 18.3696 1.13485C19.7124 1.76846 20.9166 2.66132 21.913 3.76205C22.9095 4.86278 23.6784 6.14967 24.1757 7.54868C24.6729 8.94769 24.8886 10.4312 24.8104 11.9139ZM18.0809 11.9139C18.0545 10.8636 17.7189 9.84438 17.1161 8.98386C16.5133 8.12334 15.6701 7.45972 14.692 7.07605C13.7139 6.69238 12.6444 6.60569 11.6173 6.82687C10.5902 7.04804 9.65113 7.56723 8.91765 8.31946C8.18416 9.0717 7.68883 10.0236 7.49364 11.0559C7.29845 12.0883 7.41209 13.1553 7.82031 14.1234C8.22854 15.0915 8.91323 15.9176 9.78869 16.4985C10.6641 17.0794 11.6915 17.3892 12.7421 17.3891C13.4636 17.4216 14.1838 17.3011 14.8554 17.0356C15.527 16.7701 16.1349 16.3655 16.639 15.8484C17.1432 15.3314 17.5323 14.7135 17.7808 14.0354C18.0293 13.3573 18.1316 12.6343 18.0809 11.9139Z" fill="white"/>
</svg>
