<svg width="34" height="24" viewBox="0 0 34 24" fill="none" xmlns="http://www.w3.org/2000/svg">
<path id="Vector" d="M33.752 9.35382V23.1298H27.0225V9.93919C27.0225 7.69674 25.9442 6.25973 23.7919 6.25973C21.5473 6.25973 20.2929 7.83099 20.2929 10.4784V23.1298H13.5612V9.93919C13.5612 7.69674 12.4851 6.25973 10.3306 6.25973C8.08819 6.25973 6.83164 7.83099 6.83164 10.4784V23.1298H0.102051V0.696513H6.84262V2.75191C7.54006 1.83668 8.45576 1.11083 9.50601 0.64068C10.5563 0.170528 11.7076 -0.0289334 12.8548 0.0605255C14.0067 0.00419924 15.1536 0.247232 16.1837 0.765947C17.2138 1.28466 18.092 2.06137 18.7327 3.02039C19.4785 2.01698 20.4667 1.21913 21.6047 0.701492C22.7428 0.183848 23.9935 -0.0366809 25.24 0.0605255C30.3895 0.069328 33.752 3.74659 33.752 9.35382Z" fill="white"/>
</svg>
